<svg width="42" height="39" viewBox="0 0 42 39" fill="none" xmlns="http://www.w3.org/2000/svg">
<path d="M21 32.5C24.713 32.5 28.274 31.1304 30.8995 28.6924C33.525 26.2544 35 22.9478 35 19.5C35 16.0522 33.525 12.7456 30.8995 10.3076C28.274 7.86964 24.713 6.5 21 6.5C17.287 6.5 13.726 7.86964 11.1005 10.3076C8.475 12.7456 7 16.0522 7 19.5C7 22.9478 8.475 26.2544 11.1005 28.6924C13.726 31.1304 17.287 32.5 21 32.5ZM21 35.75C11.3347 35.75 3.5 28.4749 3.5 19.5C3.5 10.5251 11.3347 3.25 21 3.25C30.6652 3.25 38.5 10.5251 38.5 19.5C38.5 28.4749 30.6652 35.75 21 35.75Z" fill="#80868A"/>
<path d="M26.9972 24.6155V16.4905H18.2472V15.9835C18.2472 15.1434 18.9822 14.4592 19.8887 14.4592H21.5284V11.4124H19.8887C18.5835 11.4136 17.3322 11.8957 16.4093 12.7526C15.4864 13.6096 14.9673 14.7715 14.9659 15.9835V16.4905H12.7784V19.5374H14.9659V24.6155H12.7784V27.6624H20.4347V24.6155H18.2472V19.5374H23.7474V24.6155H21.5284V27.6624H29.1847V24.6155H26.9972Z" fill="#80868A"/>
<path d="M25.2035 14.5794C26.171 14.5794 26.9553 13.8512 26.9553 12.9528C26.9553 12.0544 26.171 11.3262 25.2035 11.3262C24.2361 11.3262 23.4518 12.0544 23.4518 12.9528C23.4518 13.8512 24.2361 14.5794 25.2035 14.5794Z" fill="#80868A"/>
</svg>
