<svg width="35" height="33" viewBox="0 0 35 33" fill="none" xmlns="http://www.w3.org/2000/svg">
<path d="M17.5 29.25C21.213 29.25 24.774 27.8804 27.3995 25.4424C30.025 23.0044 31.5 19.6978 31.5 16.25C31.5 12.8022 30.025 9.49558 27.3995 7.05761C24.774 4.61964 21.213 3.25 17.5 3.25C13.787 3.25 10.226 4.61964 7.6005 7.05761C4.975 9.49558 3.5 12.8022 3.5 16.25C3.5 19.6978 4.975 23.0044 7.6005 25.4424C10.226 27.8804 13.787 29.25 17.5 29.25ZM17.5 32.5C7.83475 32.5 0 25.2249 0 16.25C0 7.27513 7.83475 0 17.5 0C27.1652 0 35 7.27513 35 16.25C35 25.2249 27.1652 32.5 17.5 32.5Z" fill="#122140"/>
<path d="M23.4973 21.3655V13.2405H14.7473V12.7335C14.7473 11.8934 15.4823 11.2092 16.3888 11.2092H18.0286V8.16235H16.3888C15.0836 8.16364 13.8323 8.64566 12.9094 9.50263C11.9865 10.3596 11.4675 11.5215 11.4661 12.7335V13.2405H9.27856V16.2874H11.4661V21.3655H9.27856V24.4124H16.9348V21.3655H14.7473V16.2874H20.2476V21.3655H18.0286V24.4124H25.6848V21.3655H23.4973Z" fill="#122140"/>
<path d="M21.7035 11.3294C22.671 11.3294 23.4553 10.6012 23.4553 9.7028C23.4553 8.80444 22.671 8.07617 21.7035 8.07617C20.7361 8.07617 19.9518 8.80444 19.9518 9.7028C19.9518 10.6012 20.7361 11.3294 21.7035 11.3294Z" fill="#122140"/>
</svg>
